<svg width="64" height="49" viewBox="0 0 64 49" fill="none" xmlns="http://www.w3.org/2000/svg">
<path d="M54.1787 4.04389C50.0294 2.13925 45.6505 0.781071 41.1517 0.00335199C41.1109 -0.00427208 41.0687 0.00118554 41.0311 0.0189477C40.9935 0.03671 40.9625 0.0658722 40.9424 0.102286C40.3797 1.10309 39.7565 2.40842 39.3203 3.43429C34.4011 2.69775 29.5069 2.69775 24.6888 3.43429C24.2525 2.38549 23.6067 1.10309 23.0416 0.102286C23.0207 0.066702 22.9895 0.0382532 22.9522 0.0206523C22.9148 0.00305133 22.873 -0.00288429 22.8323 0.00361902C18.333 0.77953 13.9539 2.1376 9.80508 4.04362C9.76958 4.05878 9.73967 4.08459 9.71948 4.11749C1.42241 16.5132 -0.850656 28.6042 0.264544 40.5452C0.267697 40.5745 0.276686 40.6028 0.290977 40.6285C0.305268 40.6542 0.324572 40.6767 0.347744 40.6948C5.82188 44.7151 11.1245 47.1556 16.3288 48.7732C16.3693 48.7853 16.4125 48.7847 16.4526 48.7716C16.4927 48.7584 16.5279 48.7333 16.5533 48.6996C17.7843 47.0186 18.8816 45.2458 19.8227 43.3818C19.8356 43.3562 19.843 43.3283 19.8443 43.2997C19.8457 43.2711 19.841 43.2425 19.8305 43.2159C19.82 43.1893 19.804 43.1652 19.7835 43.1452C19.7631 43.1252 19.7386 43.1098 19.7117 43.0999C17.9709 42.4396 16.3136 41.6346 14.7192 40.7204C14.6901 40.7033 14.6657 40.6794 14.6481 40.6506C14.6305 40.6219 14.6202 40.5892 14.6182 40.5556C14.6162 40.5219 14.6225 40.4883 14.6366 40.4576C14.6507 40.427 14.6721 40.4003 14.6989 40.3799C15.0344 40.1284 15.3701 39.8671 15.6904 39.6028C15.7189 39.5793 15.7533 39.5643 15.7899 39.5593C15.8264 39.5544 15.8637 39.5598 15.8973 39.5748C26.3715 44.357 37.7107 44.357 48.0611 39.5748C48.0948 39.5588 48.1324 39.5526 48.1694 39.5571C48.2065 39.5616 48.2415 39.5765 48.2704 39.6002C48.5909 39.8642 48.9264 40.1284 49.2645 40.3799C49.2915 40.4001 49.313 40.4266 49.3273 40.4571C49.3415 40.4876 49.3481 40.5211 49.3463 40.5547C49.3446 40.5883 49.3346 40.621 49.3173 40.6498C49.3 40.6787 49.2758 40.7028 49.2469 40.7202C47.652 41.6517 45.9811 42.4469 44.2523 43.0972C44.2254 43.1075 44.201 43.1233 44.1807 43.1436C44.1604 43.164 44.1446 43.1884 44.1344 43.2152C44.1241 43.2421 44.1197 43.2708 44.1213 43.2995C44.1229 43.3282 44.1305 43.3562 44.1437 43.3818C45.1048 45.2431 46.2021 47.0159 47.4104 48.697C47.4351 48.7316 47.4701 48.7577 47.5104 48.7714C47.5507 48.785 47.5942 48.7857 47.6349 48.7732C52.8643 47.1554 58.1669 44.7148 63.6411 40.6948C63.6646 40.6776 63.6843 40.6556 63.6987 40.6302C63.7131 40.6048 63.7219 40.5767 63.7245 40.5476C65.0589 26.7423 61.4893 14.7506 54.2619 4.11989C54.2441 4.08535 54.2146 4.05856 54.1787 4.04389ZM21.3867 33.2743C18.2333 33.2743 15.6349 30.3791 15.6349 26.8236C15.6349 23.2684 18.1829 20.3732 21.3869 20.3732C24.6157 20.3732 27.1888 23.2938 27.1384 26.8239C27.1384 30.3791 24.5904 33.2743 21.3867 33.2743ZM42.6528 33.2743C39.4995 33.2743 36.9011 30.3791 36.9011 26.8236C36.9011 23.2684 39.4488 20.3732 42.6528 20.3732C45.8816 20.3732 48.4547 23.2938 48.4043 26.8239C48.4043 30.3791 45.8816 33.2743 42.6528 33.2743Z" fill="#FFAFF3"/>
</svg>
