<svg width="64" height="63" viewBox="0 0 64 63" fill="none" xmlns="http://www.w3.org/2000/svg">
<path d="M32.0001 0C14.3201 0 9.15527e-05 14.328 9.15527e-05 32C9.15527e-05 46.1413 9.16809 58.1333 21.8801 62.36C23.4801 62.6613 24.0668 61.672 24.0668 60.8213C24.0668 60.0613 24.0401 58.048 24.0268 55.3813C15.1254 57.312 13.2481 51.088 13.2481 51.088C11.7921 47.3947 9.68809 46.408 9.68809 46.408C6.78942 44.424 9.91209 44.464 9.91209 44.464C13.1254 44.688 14.8134 47.76 14.8134 47.76C17.6668 52.6533 22.3041 51.24 24.1334 50.4213C24.4214 48.352 25.2454 46.9413 26.1601 46.1413C19.0534 45.3413 11.5841 42.5893 11.5841 30.328C11.5841 26.8347 12.8241 23.9813 14.8774 21.7413C14.5174 20.9333 13.4374 17.68 15.1574 13.272C15.1574 13.272 17.8374 12.4133 23.9574 16.552C26.5174 15.84 29.2374 15.488 31.9574 15.472C34.6774 15.488 37.3974 15.84 39.9574 16.552C46.0374 12.4133 48.7174 13.272 48.7174 13.272C50.4374 17.68 49.3574 20.9333 49.0374 21.7413C51.0774 23.9813 52.3174 26.8347 52.3174 30.328C52.3174 42.6213 44.8374 45.328 37.7174 46.1147C38.8374 47.0747 39.8774 49.0373 39.8774 52.0347C39.8774 56.3173 39.8374 59.7573 39.8374 60.7973C39.8374 61.6373 40.3974 62.6373 42.0374 62.3173C54.8401 58.12 64.0001 46.12 64.0001 32C64.0001 14.328 49.6721 0 32.0001 0Z" fill="#FFAFF3"/>
</svg>
