<svg width="64" height="53" viewBox="0 0 64 53" fill="none" xmlns="http://www.w3.org/2000/svg">
<path d="M63.8747 6.19601C61.4786 7.25096 58.9403 7.94732 56.3413 8.26268C59.0776 6.61801 61.1264 4.0388 62.1093 1.00135C59.5733 2.48135 56.7627 3.55868 53.7707 4.15868C51.7967 2.04783 49.181 0.647804 46.3297 0.176018C43.4785 -0.295769 40.5512 0.187082 38.0025 1.54959C35.4538 2.9121 33.4263 5.07802 32.2348 7.71101C31.0433 10.344 30.7546 13.2967 31.4133 16.1107C20.5067 15.596 10.8453 10.356 4.37333 2.44135C3.19678 4.44085 2.5831 6.72142 2.59733 9.04135C2.59733 13.6013 4.91733 17.6093 8.432 19.964C6.34896 19.8977 4.31192 19.3345 2.49067 18.3213V18.4813C2.48949 21.5117 3.53672 24.4492 5.45468 26.7954C7.37265 29.1415 10.0432 30.7519 13.0133 31.3533C11.0888 31.869 9.0731 31.9465 7.11467 31.58C7.95766 34.188 9.59377 36.4679 11.7947 38.1013C13.9956 39.7348 16.6516 40.6405 19.392 40.692C14.7507 44.3345 9.01994 46.3115 3.12 46.3054C2.08 46.3054 1.04267 46.244 0 46.1267C6.01522 49.9782 13.0094 52.0227 20.152 52.0174C44.2933 52.0174 57.48 32.028 57.48 14.724C57.48 14.164 57.48 13.604 57.44 13.044C60.016 11.1903 62.2379 8.88886 64 6.24935L63.8747 6.19601Z" fill="#FFAFF3"/>
</svg>
